<mxfile host="app.diagrams.net" modified="2024-01-02T11:59:29.846Z" agent="Mozilla/5.0 (Windows NT 10.0; Win64; x64) AppleWebKit/537.36 (KHTML, like Gecko) Chrome/120.0.0.0 Safari/537.36" version="22.1.13" etag="VT9di0y9by0RQaMTHZS3" type="github">
  <diagram name="PÃ¡gina-1" id="jgQppEOqWdvbHVD1NS-T">
    <mxGraphModel>
      <root>
        <mxCell id="0" />
        <mxCell id="1" parent="0" />
      </root>
    </mxGraphModel>
  </diagram>
</mxfile>
